<svg width="1432" height="1368" viewBox="0 0 1432 1368" fill="none" xmlns="http://www.w3.org/2000/svg">
<circle cx="1034" cy="37" r="2" fill="#D02F46"/>
<circle cx="1034" cy="57" r="2" fill="#D02F46"/>
<circle cx="1034" cy="77" r="2" fill="#D02F46"/>
<circle cx="1034" cy="97" r="2" fill="#D02F46"/>
<circle cx="1034" cy="157" r="2" fill="#D02F46"/>
<circle cx="1034" cy="177" r="2" fill="#D02F46"/>
<circle cx="1034" cy="197" r="2" fill="#D02F46"/>
<circle cx="1034" cy="217" r="2" fill="#D02F46"/>
<circle cx="1034" cy="237" r="2" fill="#D02F46"/>
<circle cx="1034" cy="117" r="2" fill="#D02F46"/>
<circle cx="1034" cy="257" r="2" fill="#D02F46"/>
<circle cx="1034" cy="137" r="2" fill="#D02F46"/>
<circle cx="1034" cy="277" r="2" fill="#D02F46"/>
<circle cx="1034" cy="337" r="2" fill="#D02F46"/>
<circle cx="1034" cy="357" r="2" fill="#D02F46"/>
<circle cx="1034" cy="377" r="2" fill="#D02F46"/>
<circle cx="1034" cy="397" r="2" fill="#D02F46"/>
<circle cx="1034" cy="417" r="2" fill="#D02F46"/>
<circle cx="1034" cy="297" r="2" fill="#D02F46"/>
<circle cx="1034" cy="437" r="2" fill="#D02F46"/>
<circle cx="1034" cy="317" r="2" fill="#D02F46"/>
<circle cx="1034" cy="457" r="2" fill="#D02F46"/>
<circle cx="1034" cy="517" r="2" fill="#D02F46"/>
<circle cx="1034" cy="537" r="2" fill="#D02F46"/>
<circle cx="1034" cy="557" r="2" fill="#D02F46"/>
<circle cx="1034" cy="577" r="2" fill="#D02F46"/>
<circle cx="1034" cy="597" r="2" fill="#D02F46"/>
<circle cx="1034" cy="477" r="2" fill="#D02F46"/>
<circle cx="1034" cy="617" r="2" fill="#D02F46"/>
<circle cx="1034" cy="497" r="2" fill="#D02F46"/>
<circle cx="1034" cy="637" r="2" fill="#D02F46"/>
<circle cx="1070" cy="17" r="2" fill="#D02F46"/>
<circle cx="1070" cy="37" r="2" fill="#D02F46"/>
<circle cx="1070" cy="57" r="2" fill="#D02F46"/>
<circle cx="1070" cy="77" r="2" fill="#D02F46"/>
<circle cx="1070" cy="97" r="2" fill="#D02F46"/>
<circle cx="1070" cy="157" r="2" fill="#D02F46"/>
<circle cx="1070" cy="177" r="2" fill="#D02F46"/>
<circle cx="1070" cy="197" r="2" fill="#D02F46"/>
<circle cx="1070" cy="217" r="2" fill="#D02F46"/>
<circle cx="1070" cy="237" r="2" fill="#D02F46"/>
<circle cx="1070" cy="117" r="2" fill="#D02F46"/>
<circle cx="1070" cy="257" r="2" fill="#D02F46"/>
<circle cx="1070" cy="137" r="2" fill="#D02F46"/>
<circle cx="1070" cy="277" r="2" fill="#D02F46"/>
<circle cx="1070" cy="337" r="2" fill="#D02F46"/>
<circle cx="1070" cy="357" r="2" fill="#D02F46"/>
<circle cx="1070" cy="377" r="2" fill="#D02F46"/>
<circle cx="1070" cy="397" r="2" fill="#D02F46"/>
<circle cx="1070" cy="417" r="2" fill="#D02F46"/>
<circle cx="1070" cy="297" r="2" fill="#D02F46"/>
<circle cx="1070" cy="437" r="2" fill="#D02F46"/>
<circle cx="1070" cy="317" r="2" fill="#D02F46"/>
<circle cx="1070" cy="457" r="2" fill="#D02F46"/>
<circle cx="1070" cy="517" r="2" fill="#D02F46"/>
<circle cx="1070" cy="537" r="2" fill="#D02F46"/>
<circle cx="1070" cy="557" r="2" fill="#D02F46"/>
<circle cx="1070" cy="577" r="2" fill="#D02F46"/>
<circle cx="1070" cy="597" r="2" fill="#D02F46"/>
<circle cx="1070" cy="477" r="2" fill="#D02F46"/>
<circle cx="1070" cy="617" r="2" fill="#D02F46"/>
<circle cx="1070" cy="497" r="2" fill="#D02F46"/>
<circle cx="1070" cy="637" r="2" fill="#D02F46"/>
<circle cx="1106" cy="37" r="2" fill="#D02F46"/>
<circle cx="1106" cy="57" r="2" fill="#D02F46"/>
<circle cx="1106" cy="77" r="2" fill="#D02F46"/>
<circle cx="1106" cy="97" r="2" fill="#D02F46"/>
<circle cx="1106" cy="157" r="2" fill="#D02F46"/>
<circle cx="1106" cy="177" r="2" fill="#D02F46"/>
<circle cx="1106" cy="197" r="2" fill="#D02F46"/>
<circle cx="1106" cy="217" r="2" fill="#D02F46"/>
<circle cx="1106" cy="237" r="2" fill="#D02F46"/>
<circle cx="1106" cy="117" r="2" fill="#D02F46"/>
<circle cx="1106" cy="257" r="2" fill="#D02F46"/>
<circle cx="1106" cy="137" r="2" fill="#D02F46"/>
<circle cx="1106" cy="277" r="2" fill="#D02F46"/>
<circle cx="1106" cy="337" r="2" fill="#D02F46"/>
<circle cx="1106" cy="357" r="2" fill="#D02F46"/>
<circle cx="1106" cy="377" r="2" fill="#D02F46"/>
<circle cx="1106" cy="397" r="2" fill="#D02F46"/>
<circle cx="1106" cy="417" r="2" fill="#D02F46"/>
<circle cx="1106" cy="297" r="2" fill="#D02F46"/>
<circle cx="1106" cy="437" r="2" fill="#D02F46"/>
<circle cx="1106" cy="317" r="2" fill="#D02F46"/>
<circle cx="1106" cy="457" r="2" fill="#D02F46"/>
<circle cx="1106" cy="517" r="2" fill="#D02F46"/>
<circle cx="1106" cy="537" r="2" fill="#D02F46"/>
<circle cx="1106" cy="557" r="2" fill="#D02F46"/>
<circle cx="1106" cy="577" r="2" fill="#D02F46"/>
<circle cx="1106" cy="597" r="2" fill="#D02F46"/>
<circle cx="1106" cy="477" r="2" fill="#D02F46"/>
<circle cx="1106" cy="617" r="2" fill="#D02F46"/>
<circle cx="1106" cy="497" r="2" fill="#D02F46"/>
<circle cx="1106" cy="637" r="2" fill="#D02F46"/>
<circle cx="1142" cy="17" r="2" fill="#D02F46"/>
<circle cx="1142" cy="37" r="2" fill="#D02F46"/>
<circle cx="1142" cy="57" r="2" fill="#D02F46"/>
<circle cx="1142" cy="77" r="2" fill="#D02F46"/>
<circle cx="1142" cy="97" r="2" fill="#D02F46"/>
<circle cx="1142" cy="157" r="2" fill="#D02F46"/>
<circle cx="1142" cy="177" r="2" fill="#D02F46"/>
<circle cx="1142" cy="197" r="2" fill="#D02F46"/>
<circle cx="1142" cy="217" r="2" fill="#D02F46"/>
<circle cx="1142" cy="237" r="2" fill="#D02F46"/>
<circle cx="1142" cy="117" r="2" fill="#D02F46"/>
<circle cx="1142" cy="257" r="2" fill="#D02F46"/>
<circle cx="1142" cy="137" r="2" fill="#D02F46"/>
<circle cx="1142" cy="277" r="2" fill="#D02F46"/>
<circle cx="1142" cy="337" r="2" fill="#D02F46"/>
<circle cx="1142" cy="357" r="2" fill="#D02F46"/>
<circle cx="1142" cy="377" r="2" fill="#D02F46"/>
<circle cx="1142" cy="397" r="2" fill="#D02F46"/>
<circle cx="1142" cy="417" r="2" fill="#D02F46"/>
<circle cx="1142" cy="297" r="2" fill="#D02F46"/>
<circle cx="1142" cy="437" r="2" fill="#D02F46"/>
<circle cx="1142" cy="317" r="2" fill="#D02F46"/>
<circle cx="1142" cy="457" r="2" fill="#D02F46"/>
<circle cx="1142" cy="517" r="2" fill="#D02F46"/>
<circle cx="1142" cy="537" r="2" fill="#D02F46"/>
<circle cx="1142" cy="557" r="2" fill="#D02F46"/>
<circle cx="1142" cy="577" r="2" fill="#D02F46"/>
<circle cx="1142" cy="597" r="2" fill="#D02F46"/>
<circle cx="1142" cy="477" r="2" fill="#D02F46"/>
<circle cx="1142" cy="617" r="2" fill="#D02F46"/>
<circle cx="1142" cy="497" r="2" fill="#D02F46"/>
<circle cx="1142" cy="637" r="2" fill="#D02F46"/>
<circle cx="1178" cy="37" r="2" fill="#D02F46"/>
<circle cx="1178" cy="57" r="2" fill="#D02F46"/>
<circle cx="1178" cy="77" r="2" fill="#D02F46"/>
<circle cx="1178" cy="97" r="2" fill="#D02F46"/>
<circle cx="1178" cy="157" r="2" fill="#D02F46"/>
<circle cx="1178" cy="177" r="2" fill="#D02F46"/>
<circle cx="1178" cy="197" r="2" fill="#D02F46"/>
<circle cx="1178" cy="217" r="2" fill="#D02F46"/>
<circle cx="1178" cy="237" r="2" fill="#D02F46"/>
<circle cx="1178" cy="117" r="2" fill="#D02F46"/>
<circle cx="1178" cy="257" r="2" fill="#D02F46"/>
<circle cx="1178" cy="137" r="2" fill="#D02F46"/>
<circle cx="1178" cy="277" r="2" fill="#D02F46"/>
<circle cx="1178" cy="337" r="2" fill="#D02F46"/>
<circle cx="1178" cy="357" r="2" fill="#D02F46"/>
<circle cx="1178" cy="377" r="2" fill="#D02F46"/>
<circle cx="1178" cy="397" r="2" fill="#D02F46"/>
<circle cx="1178" cy="417" r="2" fill="#D02F46"/>
<circle cx="1178" cy="297" r="2" fill="#D02F46"/>
<circle cx="1178" cy="437" r="2" fill="#D02F46"/>
<circle cx="1178" cy="317" r="2" fill="#D02F46"/>
<circle cx="1178" cy="457" r="2" fill="#D02F46"/>
<circle cx="1178" cy="517" r="2" fill="#D02F46"/>
<circle cx="1178" cy="537" r="2" fill="#D02F46"/>
<circle cx="1178" cy="557" r="2" fill="#D02F46"/>
<circle cx="1178" cy="577" r="2" fill="#D02F46"/>
<circle cx="1178" cy="597" r="2" fill="#D02F46"/>
<circle cx="1178" cy="477" r="2" fill="#D02F46"/>
<circle cx="1178" cy="617" r="2" fill="#D02F46"/>
<circle cx="1178" cy="497" r="2" fill="#D02F46"/>
<circle cx="1178" cy="637" r="2" fill="#D02F46"/>
<circle cx="1214" cy="17" r="2" fill="#D02F46"/>
<circle cx="1214" cy="37" r="2" fill="#D02F46"/>
<circle cx="1214" cy="57" r="2" fill="#D02F46"/>
<circle cx="1214" cy="77" r="2" fill="#D02F46"/>
<circle cx="1214" cy="97" r="2" fill="#D02F46"/>
<circle cx="1214" cy="157" r="2" fill="#D02F46"/>
<circle cx="1214" cy="177" r="2" fill="#D02F46"/>
<circle cx="1214" cy="197" r="2" fill="#D02F46"/>
<circle cx="1214" cy="217" r="2" fill="#D02F46"/>
<circle cx="1214" cy="237" r="2" fill="#D02F46"/>
<circle cx="1214" cy="117" r="2" fill="#D02F46"/>
<circle cx="1214" cy="257" r="2" fill="#D02F46"/>
<circle cx="1214" cy="137" r="2" fill="#D02F46"/>
<circle cx="1214" cy="277" r="2" fill="#D02F46"/>
<circle cx="1214" cy="337" r="2" fill="#D02F46"/>
<circle cx="1214" cy="357" r="2" fill="#D02F46"/>
<circle cx="1214" cy="377" r="2" fill="#D02F46"/>
<circle cx="1214" cy="397" r="2" fill="#D02F46"/>
<circle cx="1214" cy="417" r="2" fill="#D02F46"/>
<circle cx="1214" cy="297" r="2" fill="#D02F46"/>
<circle cx="1214" cy="437" r="2" fill="#D02F46"/>
<circle cx="1214" cy="317" r="2" fill="#D02F46"/>
<circle cx="1214" cy="457" r="2" fill="#D02F46"/>
<circle cx="1214" cy="517" r="2" fill="#D02F46"/>
<circle cx="1214" cy="537" r="2" fill="#D02F46"/>
<circle cx="1214" cy="557" r="2" fill="#D02F46"/>
<circle cx="1214" cy="577" r="2" fill="#D02F46"/>
<circle cx="1214" cy="597" r="2" fill="#D02F46"/>
<circle cx="1214" cy="477" r="2" fill="#D02F46"/>
<circle cx="1214" cy="617" r="2" fill="#D02F46"/>
<circle cx="1214" cy="497" r="2" fill="#D02F46"/>
<circle cx="1214" cy="637" r="2" fill="#D02F46"/>
<circle cx="1250" cy="37" r="2" fill="#D02F46"/>
<circle cx="1250" cy="57" r="2" fill="#D02F46"/>
<circle cx="1250" cy="77" r="2" fill="#D02F46"/>
<circle cx="1250" cy="97" r="2" fill="#D02F46"/>
<circle cx="1250" cy="157" r="2" fill="#D02F46"/>
<circle cx="1250" cy="177" r="2" fill="#D02F46"/>
<circle cx="1250" cy="197" r="2" fill="#D02F46"/>
<circle cx="1250" cy="217" r="2" fill="#D02F46"/>
<circle cx="1250" cy="237" r="2" fill="#D02F46"/>
<circle cx="1250" cy="117" r="2" fill="#D02F46"/>
<circle cx="1250" cy="257" r="2" fill="#D02F46"/>
<circle cx="1250" cy="137" r="2" fill="#D02F46"/>
<circle cx="1250" cy="277" r="2" fill="#D02F46"/>
<circle cx="1250" cy="337" r="2" fill="#D02F46"/>
<circle cx="1250" cy="357" r="2" fill="#D02F46"/>
<circle cx="1250" cy="377" r="2" fill="#D02F46"/>
<circle cx="1250" cy="397" r="2" fill="#D02F46"/>
<circle cx="1250" cy="417" r="2" fill="#D02F46"/>
<circle cx="1250" cy="297" r="2" fill="#D02F46"/>
<circle cx="1250" cy="437" r="2" fill="#D02F46"/>
<circle cx="1250" cy="317" r="2" fill="#D02F46"/>
<circle cx="1250" cy="457" r="2" fill="#D02F46"/>
<circle cx="1250" cy="517" r="2" fill="#D02F46"/>
<circle cx="1250" cy="537" r="2" fill="#D02F46"/>
<circle cx="1250" cy="557" r="2" fill="#D02F46"/>
<circle cx="1250" cy="577" r="2" fill="#D02F46"/>
<circle cx="1250" cy="597" r="2" fill="#D02F46"/>
<circle cx="1250" cy="477" r="2" fill="#D02F46"/>
<circle cx="1250" cy="617" r="2" fill="#D02F46"/>
<circle cx="1250" cy="497" r="2" fill="#D02F46"/>
<circle cx="1250" cy="637" r="2" fill="#D02F46"/>
<circle cx="1286" cy="17" r="2" fill="#D02F46"/>
<circle cx="1286" cy="37" r="2" fill="#D02F46"/>
<circle cx="1286" cy="57" r="2" fill="#D02F46"/>
<circle cx="1286" cy="77" r="2" fill="#D02F46"/>
<circle cx="1286" cy="97" r="2" fill="#D02F46"/>
<circle cx="1286" cy="157" r="2" fill="#D02F46"/>
<circle cx="1286" cy="177" r="2" fill="#D02F46"/>
<circle cx="1286" cy="197" r="2" fill="#D02F46"/>
<circle cx="1286" cy="217" r="2" fill="#D02F46"/>
<circle cx="1286" cy="237" r="2" fill="#D02F46"/>
<circle cx="1286" cy="117" r="2" fill="#D02F46"/>
<circle cx="1286" cy="257" r="2" fill="#D02F46"/>
<circle cx="1286" cy="137" r="2" fill="#D02F46"/>
<circle cx="1286" cy="277" r="2" fill="#D02F46"/>
<circle cx="1286" cy="337" r="2" fill="#D02F46"/>
<circle cx="1286" cy="357" r="2" fill="#D02F46"/>
<circle cx="1286" cy="377" r="2" fill="#D02F46"/>
<circle cx="1286" cy="397" r="2" fill="#D02F46"/>
<circle cx="1286" cy="417" r="2" fill="#D02F46"/>
<circle cx="1286" cy="297" r="2" fill="#D02F46"/>
<circle cx="1286" cy="437" r="2" fill="#D02F46"/>
<circle cx="1286" cy="317" r="2" fill="#D02F46"/>
<circle cx="1286" cy="457" r="2" fill="#D02F46"/>
<circle cx="1286" cy="517" r="2" fill="#D02F46"/>
<circle cx="1286" cy="537" r="2" fill="#D02F46"/>
<circle cx="1286" cy="557" r="2" fill="#D02F46"/>
<circle cx="1286" cy="577" r="2" fill="#D02F46"/>
<circle cx="1286" cy="597" r="2" fill="#D02F46"/>
<circle cx="1286" cy="477" r="2" fill="#D02F46"/>
<circle cx="1286" cy="617" r="2" fill="#D02F46"/>
<circle cx="1286" cy="497" r="2" fill="#D02F46"/>
<circle cx="1286" cy="637" r="2" fill="#D02F46"/>
<circle cx="1322" cy="37" r="2" fill="#D02F46"/>
<circle cx="1322" cy="57" r="2" fill="#D02F46"/>
<circle cx="1322" cy="77" r="2" fill="#D02F46"/>
<circle cx="1322" cy="97" r="2" fill="#D02F46"/>
<circle cx="1322" cy="157" r="2" fill="#D02F46"/>
<circle cx="1322" cy="177" r="2" fill="#D02F46"/>
<circle cx="1322" cy="197" r="2" fill="#D02F46"/>
<circle cx="1322" cy="217" r="2" fill="#D02F46"/>
<circle cx="1322" cy="237" r="2" fill="#D02F46"/>
<circle cx="1322" cy="117" r="2" fill="#D02F46"/>
<circle cx="1322" cy="257" r="2" fill="#D02F46"/>
<circle cx="1322" cy="137" r="2" fill="#D02F46"/>
<circle cx="1322" cy="277" r="2" fill="#D02F46"/>
<circle cx="1322" cy="337" r="2" fill="#D02F46"/>
<circle cx="1322" cy="357" r="2" fill="#D02F46"/>
<circle cx="1322" cy="377" r="2" fill="#D02F46"/>
<circle cx="1322" cy="397" r="2" fill="#D02F46"/>
<circle cx="1322" cy="417" r="2" fill="#D02F46"/>
<circle cx="1322" cy="297" r="2" fill="#D02F46"/>
<circle cx="1322" cy="437" r="2" fill="#D02F46"/>
<circle cx="1322" cy="317" r="2" fill="#D02F46"/>
<circle cx="1322" cy="457" r="2" fill="#D02F46"/>
<circle cx="1322" cy="517" r="2" fill="#D02F46"/>
<circle cx="1322" cy="537" r="2" fill="#D02F46"/>
<circle cx="1322" cy="557" r="2" fill="#D02F46"/>
<circle cx="1322" cy="577" r="2" fill="#D02F46"/>
<circle cx="1322" cy="597" r="2" fill="#D02F46"/>
<circle cx="1322" cy="477" r="2" fill="#D02F46"/>
<circle cx="1322" cy="617" r="2" fill="#D02F46"/>
<circle cx="1322" cy="497" r="2" fill="#D02F46"/>
<circle cx="1322" cy="637" r="2" fill="#D02F46"/>
<circle cx="1358" cy="17" r="2" fill="#D02F46"/>
<circle cx="1358" cy="37" r="2" fill="#D02F46"/>
<circle cx="1358" cy="57" r="2" fill="#D02F46"/>
<circle cx="1358" cy="77" r="2" fill="#D02F46"/>
<circle cx="1358" cy="97" r="2" fill="#D02F46"/>
<circle cx="1358" cy="157" r="2" fill="#D02F46"/>
<circle cx="1358" cy="177" r="2" fill="#D02F46"/>
<circle cx="1358" cy="197" r="2" fill="#D02F46"/>
<circle cx="1358" cy="217" r="2" fill="#D02F46"/>
<circle cx="1358" cy="237" r="2" fill="#D02F46"/>
<circle cx="1358" cy="117" r="2" fill="#D02F46"/>
<circle cx="1358" cy="257" r="2" fill="#D02F46"/>
<circle cx="1358" cy="137" r="2" fill="#D02F46"/>
<circle cx="1358" cy="277" r="2" fill="#D02F46"/>
<circle cx="1358" cy="337" r="2" fill="#D02F46"/>
<circle cx="1358" cy="357" r="2" fill="#D02F46"/>
<circle cx="1358" cy="377" r="2" fill="#D02F46"/>
<circle cx="1358" cy="397" r="2" fill="#D02F46"/>
<circle cx="1358" cy="417" r="2" fill="#D02F46"/>
<circle cx="1358" cy="297" r="2" fill="#D02F46"/>
<circle cx="1358" cy="437" r="2" fill="#D02F46"/>
<circle cx="1358" cy="317" r="2" fill="#D02F46"/>
<circle cx="1358" cy="457" r="2" fill="#D02F46"/>
<circle cx="1358" cy="517" r="2" fill="#D02F46"/>
<circle cx="1358" cy="537" r="2" fill="#D02F46"/>
<circle cx="1358" cy="557" r="2" fill="#D02F46"/>
<circle cx="1358" cy="577" r="2" fill="#D02F46"/>
<circle cx="1358" cy="597" r="2" fill="#D02F46"/>
<circle cx="1358" cy="477" r="2" fill="#D02F46"/>
<circle cx="1358" cy="617" r="2" fill="#D02F46"/>
<circle cx="1358" cy="497" r="2" fill="#D02F46"/>
<circle cx="1358" cy="637" r="2" fill="#D02F46"/>
<circle cx="1394" cy="37" r="2" fill="#D02F46"/>
<circle cx="1394" cy="57" r="2" fill="#D02F46"/>
<circle cx="1394" cy="77" r="2" fill="#D02F46"/>
<circle cx="1394" cy="97" r="2" fill="#D02F46"/>
<circle cx="1394" cy="157" r="2" fill="#D02F46"/>
<circle cx="1394" cy="177" r="2" fill="#D02F46"/>
<circle cx="1394" cy="197" r="2" fill="#D02F46"/>
<circle cx="1394" cy="217" r="2" fill="#D02F46"/>
<circle cx="1394" cy="237" r="2" fill="#D02F46"/>
<circle cx="1394" cy="117" r="2" fill="#D02F46"/>
<circle cx="1394" cy="257" r="2" fill="#D02F46"/>
<circle cx="1394" cy="137" r="2" fill="#D02F46"/>
<circle cx="1394" cy="277" r="2" fill="#D02F46"/>
<circle cx="1394" cy="337" r="2" fill="#D02F46"/>
<circle cx="1394" cy="357" r="2" fill="#D02F46"/>
<circle cx="1394" cy="377" r="2" fill="#D02F46"/>
<circle cx="1394" cy="397" r="2" fill="#D02F46"/>
<circle cx="1394" cy="417" r="2" fill="#D02F46"/>
<circle cx="1394" cy="297" r="2" fill="#D02F46"/>
<circle cx="1394" cy="437" r="2" fill="#D02F46"/>
<circle cx="1394" cy="317" r="2" fill="#D02F46"/>
<circle cx="1394" cy="457" r="2" fill="#D02F46"/>
<circle cx="1394" cy="517" r="2" fill="#D02F46"/>
<circle cx="1394" cy="537" r="2" fill="#D02F46"/>
<circle cx="1394" cy="557" r="2" fill="#D02F46"/>
<circle cx="1394" cy="577" r="2" fill="#D02F46"/>
<circle cx="1394" cy="597" r="2" fill="#D02F46"/>
<circle cx="1394" cy="477" r="2" fill="#D02F46"/>
<circle cx="1394" cy="617" r="2" fill="#D02F46"/>
<circle cx="1394" cy="497" r="2" fill="#D02F46"/>
<circle cx="1394" cy="637" r="2" fill="#D02F46"/>
<circle cx="1430" cy="17" r="2" fill="#D02F46"/>
<circle cx="1430" cy="37" r="2" fill="#D02F46"/>
<circle cx="1430" cy="57" r="2" fill="#D02F46"/>
<circle cx="1430" cy="77" r="2" fill="#D02F46"/>
<circle cx="1430" cy="97" r="2" fill="#D02F46"/>
<circle cx="1430" cy="157" r="2" fill="#D02F46"/>
<circle cx="1430" cy="177" r="2" fill="#D02F46"/>
<circle cx="1430" cy="197" r="2" fill="#D02F46"/>
<circle cx="1430" cy="217" r="2" fill="#D02F46"/>
<circle cx="1430" cy="237" r="2" fill="#D02F46"/>
<circle cx="1430" cy="117" r="2" fill="#D02F46"/>
<circle cx="1430" cy="257" r="2" fill="#D02F46"/>
<circle cx="1430" cy="137" r="2" fill="#D02F46"/>
<circle cx="1430" cy="277" r="2" fill="#D02F46"/>
<circle cx="1430" cy="337" r="2" fill="#D02F46"/>
<circle cx="1430" cy="357" r="2" fill="#D02F46"/>
<circle cx="1430" cy="377" r="2" fill="#D02F46"/>
<circle cx="1430" cy="397" r="2" fill="#D02F46"/>
<circle cx="1430" cy="417" r="2" fill="#D02F46"/>
<circle cx="1430" cy="297" r="2" fill="#D02F46"/>
<circle cx="1430" cy="437" r="2" fill="#D02F46"/>
<circle cx="1430" cy="317" r="2" fill="#D02F46"/>
<circle cx="1430" cy="457" r="2" fill="#D02F46"/>
<circle cx="1430" cy="517" r="2" fill="#D02F46"/>
<circle cx="1430" cy="537" r="2" fill="#D02F46"/>
<circle cx="1430" cy="557" r="2" fill="#D02F46"/>
<circle cx="1430" cy="577" r="2" fill="#D02F46"/>
<circle cx="1430" cy="597" r="2" fill="#D02F46"/>
<circle cx="1430" cy="477" r="2" fill="#D02F46"/>
<circle cx="1430" cy="617" r="2" fill="#D02F46"/>
<circle cx="1430" cy="497" r="2" fill="#D02F46"/>
<circle cx="1430" cy="637" r="2" fill="#D02F46"/>
<circle cx="10" cy="746" r="2" fill="#ED8182"/>
<circle cx="10" cy="766" r="2" fill="#ED8182"/>
<circle cx="10" cy="786" r="2" fill="#ED8182"/>
<circle cx="10" cy="806" r="2" fill="#ED8182"/>
<circle cx="10" cy="826" r="2" fill="#ED8182"/>
<circle cx="10" cy="886" r="2" fill="#ED8182"/>
<circle cx="10" cy="906" r="2" fill="#ED8182"/>
<circle cx="10" cy="926" r="2" fill="#ED8182"/>
<circle cx="10" cy="946" r="2" fill="#ED8182"/>
<circle cx="10" cy="966" r="2" fill="#ED8182"/>
<circle cx="10" cy="846" r="2" fill="#ED8182"/>
<circle cx="10" cy="986" r="2" fill="#ED8182"/>
<circle cx="10" cy="866" r="2" fill="#ED8182"/>
<circle cx="10" cy="1006" r="2" fill="#ED8182"/>
<circle cx="10" cy="1066" r="2" fill="#ED8182"/>
<circle cx="10" cy="1086" r="2" fill="#ED8182"/>
<circle cx="10" cy="1106" r="2" fill="#ED8182"/>
<circle cx="10" cy="1126" r="2" fill="#ED8182"/>
<circle cx="10" cy="1146" r="2" fill="#ED8182"/>
<circle cx="10" cy="1026" r="2" fill="#ED8182"/>
<circle cx="10" cy="1166" r="2" fill="#ED8182"/>
<circle cx="10" cy="1046" r="2" fill="#ED8182"/>
<circle cx="10" cy="1186" r="2" fill="#ED8182"/>
<circle cx="10" cy="1246" r="2" fill="#ED8182"/>
<circle cx="10" cy="1266" r="2" fill="#ED8182"/>
<circle cx="10" cy="1286" r="2" fill="#ED8182"/>
<circle cx="10" cy="1306" r="2" fill="#ED8182"/>
<circle cx="10" cy="1326" r="2" fill="#ED8182"/>
<circle cx="10" cy="1206" r="2" fill="#ED8182"/>
<circle cx="10" cy="1346" r="2" fill="#ED8182"/>
<circle cx="10" cy="1226" r="2" fill="#ED8182"/>
<circle cx="10" cy="1366" r="2" fill="#ED8182"/>
<circle cx="46" cy="746" r="2" fill="#ED8182"/>
<circle cx="46" cy="766" r="2" fill="#ED8182"/>
<circle cx="46" cy="786" r="2" fill="#ED8182"/>
<circle cx="46" cy="806" r="2" fill="#ED8182"/>
<circle cx="46" cy="826" r="2" fill="#ED8182"/>
<circle cx="46" cy="886" r="2" fill="#ED8182"/>
<circle cx="46" cy="906" r="2" fill="#ED8182"/>
<circle cx="46" cy="926" r="2" fill="#ED8182"/>
<circle cx="46" cy="946" r="2" fill="#ED8182"/>
<circle cx="46" cy="966" r="2" fill="#ED8182"/>
<circle cx="46" cy="846" r="2" fill="#ED8182"/>
<circle cx="46" cy="986" r="2" fill="#ED8182"/>
<circle cx="46" cy="866" r="2" fill="#ED8182"/>
<circle cx="46" cy="1006" r="2" fill="#ED8182"/>
<circle cx="46" cy="1066" r="2" fill="#ED8182"/>
<circle cx="46" cy="1086" r="2" fill="#ED8182"/>
<circle cx="46" cy="1106" r="2" fill="#ED8182"/>
<circle cx="46" cy="1126" r="2" fill="#ED8182"/>
<circle cx="46" cy="1146" r="2" fill="#ED8182"/>
<circle cx="46" cy="1026" r="2" fill="#ED8182"/>
<circle cx="46" cy="1166" r="2" fill="#ED8182"/>
<circle cx="46" cy="1046" r="2" fill="#ED8182"/>
<circle cx="46" cy="1186" r="2" fill="#ED8182"/>
<circle cx="46" cy="1246" r="2" fill="#ED8182"/>
<circle cx="46" cy="1266" r="2" fill="#ED8182"/>
<circle cx="46" cy="1286" r="2" fill="#ED8182"/>
<circle cx="46" cy="1306" r="2" fill="#ED8182"/>
<circle cx="46" cy="1326" r="2" fill="#ED8182"/>
<circle cx="46" cy="1206" r="2" fill="#ED8182"/>
<circle cx="46" cy="1346" r="2" fill="#ED8182"/>
<circle cx="46" cy="1226" r="2" fill="#ED8182"/>
<circle cx="82" cy="746" r="2" fill="#ED8182"/>
<circle cx="82" cy="766" r="2" fill="#ED8182"/>
<circle cx="82" cy="786" r="2" fill="#ED8182"/>
<circle cx="82" cy="806" r="2" fill="#ED8182"/>
<circle cx="82" cy="826" r="2" fill="#ED8182"/>
<circle cx="82" cy="886" r="2" fill="#ED8182"/>
<circle cx="82" cy="906" r="2" fill="#ED8182"/>
<circle cx="82" cy="926" r="2" fill="#ED8182"/>
<circle cx="82" cy="946" r="2" fill="#ED8182"/>
<circle cx="82" cy="966" r="2" fill="#ED8182"/>
<circle cx="82" cy="846" r="2" fill="#ED8182"/>
<circle cx="82" cy="986" r="2" fill="#ED8182"/>
<circle cx="82" cy="866" r="2" fill="#ED8182"/>
<circle cx="82" cy="1006" r="2" fill="#ED8182"/>
<circle cx="82" cy="1066" r="2" fill="#ED8182"/>
<circle cx="82" cy="1086" r="2" fill="#ED8182"/>
<circle cx="82" cy="1106" r="2" fill="#ED8182"/>
<circle cx="82" cy="1126" r="2" fill="#ED8182"/>
<circle cx="82" cy="1146" r="2" fill="#ED8182"/>
<circle cx="82" cy="1026" r="2" fill="#ED8182"/>
<circle cx="82" cy="1166" r="2" fill="#ED8182"/>
<circle cx="82" cy="1046" r="2" fill="#ED8182"/>
<circle cx="82" cy="1186" r="2" fill="#ED8182"/>
<circle cx="82" cy="1246" r="2" fill="#ED8182"/>
<circle cx="82" cy="1266" r="2" fill="#ED8182"/>
<circle cx="82" cy="1286" r="2" fill="#ED8182"/>
<circle cx="82" cy="1306" r="2" fill="#ED8182"/>
<circle cx="82" cy="1326" r="2" fill="#ED8182"/>
<circle cx="82" cy="1206" r="2" fill="#ED8182"/>
<circle cx="82" cy="1346" r="2" fill="#ED8182"/>
<circle cx="82" cy="1226" r="2" fill="#ED8182"/>
<circle cx="82" cy="1366" r="2" fill="#ED8182"/>
<circle cx="118" cy="746" r="2" fill="#ED8182"/>
<circle cx="118" cy="766" r="2" fill="#ED8182"/>
<circle cx="118" cy="786" r="2" fill="#ED8182"/>
<circle cx="118" cy="806" r="2" fill="#ED8182"/>
<circle cx="118" cy="826" r="2" fill="#ED8182"/>
<circle cx="118" cy="886" r="2" fill="#ED8182"/>
<circle cx="118" cy="906" r="2" fill="#ED8182"/>
<circle cx="118" cy="926" r="2" fill="#ED8182"/>
<circle cx="118" cy="946" r="2" fill="#ED8182"/>
<circle cx="118" cy="966" r="2" fill="#ED8182"/>
<circle cx="118" cy="846" r="2" fill="#ED8182"/>
<circle cx="118" cy="986" r="2" fill="#ED8182"/>
<circle cx="118" cy="866" r="2" fill="#ED8182"/>
<circle cx="118" cy="1006" r="2" fill="#ED8182"/>
<circle cx="118" cy="1066" r="2" fill="#ED8182"/>
<circle cx="118" cy="1086" r="2" fill="#ED8182"/>
<circle cx="118" cy="1106" r="2" fill="#ED8182"/>
<circle cx="118" cy="1126" r="2" fill="#ED8182"/>
<circle cx="118" cy="1146" r="2" fill="#ED8182"/>
<circle cx="118" cy="1026" r="2" fill="#ED8182"/>
<circle cx="118" cy="1166" r="2" fill="#ED8182"/>
<circle cx="118" cy="1046" r="2" fill="#ED8182"/>
<circle cx="118" cy="1186" r="2" fill="#ED8182"/>
<circle cx="118" cy="1246" r="2" fill="#ED8182"/>
<circle cx="118" cy="1266" r="2" fill="#ED8182"/>
<circle cx="118" cy="1286" r="2" fill="#ED8182"/>
<circle cx="118" cy="1306" r="2" fill="#ED8182"/>
<circle cx="118" cy="1326" r="2" fill="#ED8182"/>
<circle cx="118" cy="1206" r="2" fill="#ED8182"/>
<circle cx="118" cy="1346" r="2" fill="#ED8182"/>
<circle cx="118" cy="1226" r="2" fill="#ED8182"/>
<circle cx="154" cy="746" r="2" fill="#ED8182"/>
<circle cx="154" cy="766" r="2" fill="#ED8182"/>
<circle cx="154" cy="786" r="2" fill="#ED8182"/>
<circle cx="154" cy="806" r="2" fill="#ED8182"/>
<circle cx="154" cy="826" r="2" fill="#ED8182"/>
<circle cx="154" cy="886" r="2" fill="#ED8182"/>
<circle cx="154" cy="906" r="2" fill="#ED8182"/>
<circle cx="154" cy="926" r="2" fill="#ED8182"/>
<circle cx="154" cy="946" r="2" fill="#ED8182"/>
<circle cx="154" cy="966" r="2" fill="#ED8182"/>
<circle cx="154" cy="846" r="2" fill="#ED8182"/>
<circle cx="154" cy="986" r="2" fill="#ED8182"/>
<circle cx="154" cy="866" r="2" fill="#ED8182"/>
<circle cx="154" cy="1006" r="2" fill="#ED8182"/>
<circle cx="154" cy="1066" r="2" fill="#ED8182"/>
<circle cx="154" cy="1086" r="2" fill="#ED8182"/>
<circle cx="154" cy="1106" r="2" fill="#ED8182"/>
<circle cx="154" cy="1126" r="2" fill="#ED8182"/>
<circle cx="154" cy="1146" r="2" fill="#ED8182"/>
<circle cx="154" cy="1026" r="2" fill="#ED8182"/>
<circle cx="154" cy="1166" r="2" fill="#ED8182"/>
<circle cx="154" cy="1046" r="2" fill="#ED8182"/>
<circle cx="154" cy="1186" r="2" fill="#ED8182"/>
<circle cx="154" cy="1246" r="2" fill="#ED8182"/>
<circle cx="154" cy="1266" r="2" fill="#ED8182"/>
<circle cx="154" cy="1286" r="2" fill="#ED8182"/>
<circle cx="154" cy="1306" r="2" fill="#ED8182"/>
<circle cx="154" cy="1326" r="2" fill="#ED8182"/>
<circle cx="154" cy="1206" r="2" fill="#ED8182"/>
<circle cx="154" cy="1346" r="2" fill="#ED8182"/>
<circle cx="154" cy="1226" r="2" fill="#ED8182"/>
<circle cx="154" cy="1366" r="2" fill="#ED8182"/>
<circle cx="190" cy="746" r="2" fill="#ED8182"/>
<circle cx="190" cy="766" r="2" fill="#ED8182"/>
<circle cx="190" cy="786" r="2" fill="#ED8182"/>
<circle cx="190" cy="806" r="2" fill="#ED8182"/>
<circle cx="190" cy="826" r="2" fill="#ED8182"/>
<circle cx="190" cy="886" r="2" fill="#ED8182"/>
<circle cx="190" cy="906" r="2" fill="#ED8182"/>
<circle cx="190" cy="926" r="2" fill="#ED8182"/>
<circle cx="190" cy="946" r="2" fill="#ED8182"/>
<circle cx="190" cy="966" r="2" fill="#ED8182"/>
<circle cx="190" cy="846" r="2" fill="#ED8182"/>
<circle cx="190" cy="986" r="2" fill="#ED8182"/>
<circle cx="190" cy="866" r="2" fill="#ED8182"/>
<circle cx="190" cy="1006" r="2" fill="#ED8182"/>
<circle cx="190" cy="1066" r="2" fill="#ED8182"/>
<circle cx="190" cy="1086" r="2" fill="#ED8182"/>
<circle cx="190" cy="1106" r="2" fill="#ED8182"/>
<circle cx="190" cy="1126" r="2" fill="#ED8182"/>
<circle cx="190" cy="1146" r="2" fill="#ED8182"/>
<circle cx="190" cy="1026" r="2" fill="#ED8182"/>
<circle cx="190" cy="1166" r="2" fill="#ED8182"/>
<circle cx="190" cy="1046" r="2" fill="#ED8182"/>
<circle cx="190" cy="1186" r="2" fill="#ED8182"/>
<circle cx="190" cy="1246" r="2" fill="#ED8182"/>
<circle cx="190" cy="1266" r="2" fill="#ED8182"/>
<circle cx="190" cy="1286" r="2" fill="#ED8182"/>
<circle cx="190" cy="1306" r="2" fill="#ED8182"/>
<circle cx="190" cy="1326" r="2" fill="#ED8182"/>
<circle cx="190" cy="1206" r="2" fill="#ED8182"/>
<circle cx="190" cy="1346" r="2" fill="#ED8182"/>
<circle cx="190" cy="1226" r="2" fill="#ED8182"/>
<circle cx="226" cy="746" r="2" fill="#ED8182"/>
<circle cx="226" cy="766" r="2" fill="#ED8182"/>
<circle cx="226" cy="786" r="2" fill="#ED8182"/>
<circle cx="226" cy="806" r="2" fill="#ED8182"/>
<circle cx="226" cy="826" r="2" fill="#ED8182"/>
<circle cx="226" cy="886" r="2" fill="#ED8182"/>
<circle cx="226" cy="906" r="2" fill="#ED8182"/>
<circle cx="226" cy="926" r="2" fill="#ED8182"/>
<circle cx="226" cy="946" r="2" fill="#ED8182"/>
<circle cx="226" cy="966" r="2" fill="#ED8182"/>
<circle cx="226" cy="846" r="2" fill="#ED8182"/>
<circle cx="226" cy="986" r="2" fill="#ED8182"/>
<circle cx="226" cy="866" r="2" fill="#ED8182"/>
<circle cx="226" cy="1006" r="2" fill="#ED8182"/>
<circle cx="226" cy="1066" r="2" fill="#ED8182"/>
<circle cx="226" cy="1086" r="2" fill="#ED8182"/>
<circle cx="226" cy="1106" r="2" fill="#ED8182"/>
<circle cx="226" cy="1126" r="2" fill="#ED8182"/>
<circle cx="226" cy="1146" r="2" fill="#ED8182"/>
<circle cx="226" cy="1026" r="2" fill="#ED8182"/>
<circle cx="226" cy="1166" r="2" fill="#ED8182"/>
<circle cx="226" cy="1046" r="2" fill="#ED8182"/>
<circle cx="226" cy="1186" r="2" fill="#ED8182"/>
<circle cx="226" cy="1246" r="2" fill="#ED8182"/>
<circle cx="226" cy="1266" r="2" fill="#ED8182"/>
<circle cx="226" cy="1286" r="2" fill="#ED8182"/>
<circle cx="226" cy="1306" r="2" fill="#ED8182"/>
<circle cx="226" cy="1326" r="2" fill="#ED8182"/>
<circle cx="226" cy="1206" r="2" fill="#ED8182"/>
<circle cx="226" cy="1346" r="2" fill="#ED8182"/>
<circle cx="226" cy="1226" r="2" fill="#ED8182"/>
<circle cx="226" cy="1366" r="2" fill="#ED8182"/>
<circle cx="262" cy="746" r="2" fill="#ED8182"/>
<circle cx="262" cy="766" r="2" fill="#ED8182"/>
<circle cx="262" cy="786" r="2" fill="#ED8182"/>
<circle cx="262" cy="806" r="2" fill="#ED8182"/>
<circle cx="262" cy="826" r="2" fill="#ED8182"/>
<circle cx="262" cy="886" r="2" fill="#ED8182"/>
<circle cx="262" cy="906" r="2" fill="#ED8182"/>
<circle cx="262" cy="926" r="2" fill="#ED8182"/>
<circle cx="262" cy="946" r="2" fill="#ED8182"/>
<circle cx="262" cy="966" r="2" fill="#ED8182"/>
<circle cx="262" cy="846" r="2" fill="#ED8182"/>
<circle cx="262" cy="986" r="2" fill="#ED8182"/>
<circle cx="262" cy="866" r="2" fill="#ED8182"/>
<circle cx="262" cy="1006" r="2" fill="#ED8182"/>
<circle cx="262" cy="1066" r="2" fill="#ED8182"/>
<circle cx="262" cy="1086" r="2" fill="#ED8182"/>
<circle cx="262" cy="1106" r="2" fill="#ED8182"/>
<circle cx="262" cy="1126" r="2" fill="#ED8182"/>
<circle cx="262" cy="1146" r="2" fill="#ED8182"/>
<circle cx="262" cy="1026" r="2" fill="#ED8182"/>
<circle cx="262" cy="1166" r="2" fill="#ED8182"/>
<circle cx="262" cy="1046" r="2" fill="#ED8182"/>
<circle cx="262" cy="1186" r="2" fill="#ED8182"/>
<circle cx="262" cy="1246" r="2" fill="#ED8182"/>
<circle cx="262" cy="1266" r="2" fill="#ED8182"/>
<circle cx="262" cy="1286" r="2" fill="#ED8182"/>
<circle cx="262" cy="1306" r="2" fill="#ED8182"/>
<circle cx="262" cy="1326" r="2" fill="#ED8182"/>
<circle cx="262" cy="1206" r="2" fill="#ED8182"/>
<circle cx="262" cy="1346" r="2" fill="#ED8182"/>
<circle cx="262" cy="1226" r="2" fill="#ED8182"/>
<circle cx="298" cy="746" r="2" fill="#ED8182"/>
<circle cx="298" cy="766" r="2" fill="#ED8182"/>
<circle cx="298" cy="786" r="2" fill="#ED8182"/>
<circle cx="298" cy="806" r="2" fill="#ED8182"/>
<circle cx="298" cy="826" r="2" fill="#ED8182"/>
<circle cx="298" cy="886" r="2" fill="#ED8182"/>
<circle cx="298" cy="906" r="2" fill="#ED8182"/>
<circle cx="298" cy="926" r="2" fill="#ED8182"/>
<circle cx="298" cy="946" r="2" fill="#ED8182"/>
<circle cx="298" cy="966" r="2" fill="#ED8182"/>
<circle cx="298" cy="846" r="2" fill="#ED8182"/>
<circle cx="298" cy="986" r="2" fill="#ED8182"/>
<circle cx="298" cy="866" r="2" fill="#ED8182"/>
<circle cx="298" cy="1006" r="2" fill="#ED8182"/>
<circle cx="298" cy="1066" r="2" fill="#ED8182"/>
<circle cx="298" cy="1086" r="2" fill="#ED8182"/>
<circle cx="298" cy="1106" r="2" fill="#ED8182"/>
<circle cx="298" cy="1126" r="2" fill="#ED8182"/>
<circle cx="298" cy="1146" r="2" fill="#ED8182"/>
<circle cx="298" cy="1026" r="2" fill="#ED8182"/>
<circle cx="298" cy="1166" r="2" fill="#ED8182"/>
<circle cx="298" cy="1046" r="2" fill="#ED8182"/>
<circle cx="298" cy="1186" r="2" fill="#ED8182"/>
<circle cx="298" cy="1246" r="2" fill="#ED8182"/>
<circle cx="298" cy="1266" r="2" fill="#ED8182"/>
<circle cx="298" cy="1286" r="2" fill="#ED8182"/>
<circle cx="298" cy="1306" r="2" fill="#ED8182"/>
<circle cx="298" cy="1326" r="2" fill="#ED8182"/>
<circle cx="298" cy="1206" r="2" fill="#ED8182"/>
<circle cx="298" cy="1346" r="2" fill="#ED8182"/>
<circle cx="298" cy="1226" r="2" fill="#ED8182"/>
<circle cx="298" cy="1366" r="2" fill="#ED8182"/>
<circle cx="334" cy="746" r="2" fill="#ED8182"/>
<circle cx="334" cy="766" r="2" fill="#ED8182"/>
<circle cx="334" cy="786" r="2" fill="#ED8182"/>
<circle cx="334" cy="806" r="2" fill="#ED8182"/>
<circle cx="334" cy="826" r="2" fill="#ED8182"/>
<circle cx="334" cy="886" r="2" fill="#ED8182"/>
<circle cx="334" cy="906" r="2" fill="#ED8182"/>
<circle cx="334" cy="926" r="2" fill="#ED8182"/>
<circle cx="334" cy="946" r="2" fill="#ED8182"/>
<circle cx="334" cy="966" r="2" fill="#ED8182"/>
<circle cx="334" cy="846" r="2" fill="#ED8182"/>
<circle cx="334" cy="986" r="2" fill="#ED8182"/>
<circle cx="334" cy="866" r="2" fill="#ED8182"/>
<circle cx="334" cy="1006" r="2" fill="#ED8182"/>
<circle cx="334" cy="1066" r="2" fill="#ED8182"/>
<circle cx="334" cy="1086" r="2" fill="#ED8182"/>
<circle cx="334" cy="1106" r="2" fill="#ED8182"/>
<circle cx="334" cy="1126" r="2" fill="#ED8182"/>
<circle cx="334" cy="1146" r="2" fill="#ED8182"/>
<circle cx="334" cy="1026" r="2" fill="#ED8182"/>
<circle cx="334" cy="1166" r="2" fill="#ED8182"/>
<circle cx="334" cy="1046" r="2" fill="#ED8182"/>
<circle cx="334" cy="1186" r="2" fill="#ED8182"/>
<circle cx="334" cy="1246" r="2" fill="#ED8182"/>
<circle cx="334" cy="1266" r="2" fill="#ED8182"/>
<circle cx="334" cy="1286" r="2" fill="#ED8182"/>
<circle cx="334" cy="1306" r="2" fill="#ED8182"/>
<circle cx="334" cy="1326" r="2" fill="#ED8182"/>
<circle cx="334" cy="1206" r="2" fill="#ED8182"/>
<circle cx="334" cy="1346" r="2" fill="#ED8182"/>
<circle cx="334" cy="1226" r="2" fill="#ED8182"/>
<circle cx="370" cy="746" r="2" fill="#ED8182"/>
<circle cx="370" cy="766" r="2" fill="#ED8182"/>
<circle cx="370" cy="786" r="2" fill="#ED8182"/>
<circle cx="370" cy="806" r="2" fill="#ED8182"/>
<circle cx="370" cy="826" r="2" fill="#ED8182"/>
<circle cx="370" cy="886" r="2" fill="#ED8182"/>
<circle cx="370" cy="906" r="2" fill="#ED8182"/>
<circle cx="370" cy="926" r="2" fill="#ED8182"/>
<circle cx="370" cy="946" r="2" fill="#ED8182"/>
<circle cx="370" cy="966" r="2" fill="#ED8182"/>
<circle cx="370" cy="846" r="2" fill="#ED8182"/>
<circle cx="370" cy="986" r="2" fill="#ED8182"/>
<circle cx="370" cy="866" r="2" fill="#ED8182"/>
<circle cx="370" cy="1006" r="2" fill="#ED8182"/>
<circle cx="370" cy="1066" r="2" fill="#ED8182"/>
<circle cx="370" cy="1086" r="2" fill="#ED8182"/>
<circle cx="370" cy="1106" r="2" fill="#ED8182"/>
<circle cx="370" cy="1126" r="2" fill="#ED8182"/>
<circle cx="370" cy="1146" r="2" fill="#ED8182"/>
<circle cx="370" cy="1026" r="2" fill="#ED8182"/>
<circle cx="370" cy="1166" r="2" fill="#ED8182"/>
<circle cx="370" cy="1046" r="2" fill="#ED8182"/>
<circle cx="370" cy="1186" r="2" fill="#ED8182"/>
<circle cx="370" cy="1246" r="2" fill="#ED8182"/>
<circle cx="370" cy="1266" r="2" fill="#ED8182"/>
<circle cx="370" cy="1286" r="2" fill="#ED8182"/>
<circle cx="370" cy="1306" r="2" fill="#ED8182"/>
<circle cx="370" cy="1326" r="2" fill="#ED8182"/>
<circle cx="370" cy="1206" r="2" fill="#ED8182"/>
<circle cx="370" cy="1346" r="2" fill="#ED8182"/>
<circle cx="370" cy="1226" r="2" fill="#ED8182"/>
<circle cx="370" cy="1366" r="2" fill="#ED8182"/>
<circle cx="406" cy="746" r="2" fill="#ED8182"/>
<circle cx="406" cy="766" r="2" fill="#ED8182"/>
<circle cx="406" cy="786" r="2" fill="#ED8182"/>
<circle cx="406" cy="806" r="2" fill="#ED8182"/>
<circle cx="406" cy="826" r="2" fill="#ED8182"/>
<circle cx="406" cy="886" r="2" fill="#ED8182"/>
<circle cx="406" cy="906" r="2" fill="#ED8182"/>
<circle cx="406" cy="926" r="2" fill="#ED8182"/>
<circle cx="406" cy="946" r="2" fill="#ED8182"/>
<circle cx="406" cy="966" r="2" fill="#ED8182"/>
<circle cx="406" cy="846" r="2" fill="#ED8182"/>
<circle cx="406" cy="986" r="2" fill="#ED8182"/>
<circle cx="406" cy="866" r="2" fill="#ED8182"/>
<circle cx="406" cy="1006" r="2" fill="#ED8182"/>
<circle cx="406" cy="1066" r="2" fill="#ED8182"/>
<circle cx="406" cy="1086" r="2" fill="#ED8182"/>
<circle cx="406" cy="1106" r="2" fill="#ED8182"/>
<circle cx="406" cy="1126" r="2" fill="#ED8182"/>
<circle cx="406" cy="1146" r="2" fill="#ED8182"/>
<circle cx="406" cy="1026" r="2" fill="#ED8182"/>
<circle cx="406" cy="1166" r="2" fill="#ED8182"/>
<circle cx="406" cy="1046" r="2" fill="#ED8182"/>
<circle cx="406" cy="1186" r="2" fill="#ED8182"/>
<circle cx="406" cy="1246" r="2" fill="#ED8182"/>
<circle cx="406" cy="1266" r="2" fill="#ED8182"/>
<circle cx="406" cy="1286" r="2" fill="#ED8182"/>
<circle cx="406" cy="1306" r="2" fill="#ED8182"/>
<circle cx="406" cy="1326" r="2" fill="#ED8182"/>
<circle cx="406" cy="1206" r="2" fill="#ED8182"/>
<circle cx="406" cy="1346" r="2" fill="#ED8182"/>
<circle cx="406" cy="1226" r="2" fill="#ED8182"/>
<path d="M-1 429.5V0L460 214.5L-1 429.5Z" fill="#FF9D9E"/>
</svg>
